<?xml version="1.0" encoding="UTF-8" standalone="no"?>
<!DOCTYPE svg PUBLIC "-//W3C//DTD SVG 1.1//EN" "http://www.w3.org/Graphics/SVG/1.1/DTD/svg11.dtd">
<svg xmlns="http://www.w3.org/2000/svg" version="1.1" viewBox="0.00 0.00 546.00 619.00">
<g stroke-width="2.00" fill="none" stroke-linecap="butt">
<path stroke="#6b756a" vector-effect="non-scaling-stroke" d="
  M 232.78 615.26
  Q 235.86 599.24 235.54 581.50
  Q 235.13 558.61 223.44 539.47"
/>
<path stroke="#818e90" vector-effect="non-scaling-stroke" d="
  M 223.44 539.47
  L 219.23 532.74
  A 0.36 0.36 0.0 0 1 219.74 532.26
  Q 224.02 535.27 228.39 539.36
  C 230.37 541.20 233.01 542.60 234.32 544.49
  C 238.46 550.45 243.02 556.09 246.79 562.54
  Q 254.80 576.24 258.98 591.58
  A 2.67 2.67 0.0 0 0 261.57 593.55
  L 265.01 593.53"
/>
<path stroke="#6b756a" vector-effect="non-scaling-stroke" d="
  M 265.01 593.53
  Q 272.37 594.44 279.26 594.08
  Q 292.51 593.38 303.03 592.32
  Q 331.50 589.46 358.30 579.68
  A 1.72 1.72 0.0 0 0 359.37 578.53
  Q 365.43 556.68 366.99 534.80
  Q 368.81 509.24 362.50 482.99
  Q 355.50 453.90 338.58 432.66
  Q 337.21 430.96 332.82 427.66
  A 1.30 1.30 0.0 0 0 331.64 427.47
  Q 327.19 428.91 323.24 429.49
  Q 304.84 432.16 286.52 427.97
  Q 281.09 426.73 272.94 424.65
  A 0.18 0.18 0.0 0 1 272.98 424.29
  Q 274.99 424.25 276.77 423.78
  A 5.48 5.44 -53.9 0 1 277.95 423.59
  C 298.44 422.44 320.10 413.85 334.10 398.38
  Q 342.95 388.60 348.32 376.13
  Q 350.18 371.80 351.98 367.11"
/>
<path stroke="#203436" vector-effect="non-scaling-stroke" d="
  M 351.98 367.11
  Q 365.92 374.93 379.47 367.99
  Q 383.82 365.76 389.57 359.17
  A 0.35 0.34 16.8 0 0 389.26 358.60
  Q 388.47 358.71 388.00 358.35
  A 2.41 2.37 -25.8 0 0 386.65 357.89
  Q 380.71 357.76 379.77 357.50
  Q 373.50 355.83 367.41 352.38
  A 2.50 2.18 -3.9 0 1 366.91 352.00
  L 355.32 340.50"
/>
<path stroke="#6b756a" vector-effect="non-scaling-stroke" d="
  M 355.32 340.50
  Q 354.91 329.05 352.59 317.11
  Q 350.77 307.76 348.36 302.75
  Q 345.18 296.14 340.27 290.09
  A 0.51 0.50 -19.7 0 1 340.66 289.27
  C 341.88 289.26 343.04 289.92 344.01 290.00
  Q 360.42 291.23 372.87 282.04
  C 377.35 278.73 381.36 273.60 385.27 268.77
  C 391.99 260.47 403.38 257.13 413.79 259.67
  A 0.55 0.55 0.0 0 0 414.45 259.27
  Q 416.24 252.16 415.72 245.00"
/>
<path stroke="#818e90" vector-effect="non-scaling-stroke" d="
  M 415.72 245.00
  Q 415.44 240.04 414.27 236.49
  C 404.69 207.19 376.79 190.03 348.45 182.07
  Q 332.79 177.67 315.37 175.29
  Q 305.79 173.98 284.84 173.04
  Q 266.85 172.24 254.25 171.48
  Q 230.01 170.02 204.95 162.52
  C 189.44 157.87 175.01 150.84 162.34 142.40
  C 137.22 125.66 116.61 102.15 105.54 73.81
  Q 99.31 57.87 96.71 41.60
  A 0.15 0.15 0.0 0 0 96.42 41.59
  L 94.80 48.52"
/>
<path stroke="#715e26" vector-effect="non-scaling-stroke" d="
  M 94.80 48.52
  Q 90.94 58.97 89.68 66.93
  Q 87.82 78.61 88.50 94.76
  C 89.28 113.55 94.76 129.56 106.28 144.59
  Q 121.58 164.57 145.05 174.41
  Q 154.40 178.33 168.40 183.15"
/>
<path stroke="#81792e" vector-effect="non-scaling-stroke" d="
  M 168.40 183.15
  L 178.26 186.39"
/>
<path stroke="#818e90" vector-effect="non-scaling-stroke" d="
  M 178.26 186.39
  Q 151.15 182.55 131.62 176.88
  Q 102.84 168.53 77.87 147.05"
/>
<path stroke="#81792e" vector-effect="non-scaling-stroke" d="
  M 77.87 147.05
  Q 74.18 142.80 70.10 138.28
  C 66.53 134.32 64.39 130.59 61.63 126.53
  A 0.21 0.21 0.0 0 0 61.25 126.72
  L 63.02 132.02"
/>
<path stroke="#715e26" vector-effect="non-scaling-stroke" d="
  M 63.02 132.02
  C 64.84 143.90 68.28 154.50 73.08 165.89
  C 78.71 179.26 86.27 189.78 96.29 198.97
  C 107.35 209.12 122.39 215.78 137.02 218.90
  Q 155.71 222.87 176.21 222.61
  Q 186.96 222.47 197.53 218.16
  Q 197.88 218.01 198.02 218.53"
/>
<path stroke="#81792e" vector-effect="non-scaling-stroke" d="
  M 198.02 218.53
  L 196.68 219.44"
/>
<path stroke="#715e26" vector-effect="non-scaling-stroke" d="
  M 196.68 219.44
  C 187.77 223.20 179.96 227.87 169.71 233.19
  Q 148.10 244.41 123.95 247.99
  A 0.10 0.10 0.0 0 0 123.96 248.18
  Q 125.17 248.25 135.41 248.53
  Q 140.65 248.68 146.62 247.75
  Q 152.08 246.90 157.92 246.07
  Q 165.81 244.95 177.20 241.38
  Q 200.17 234.16 212.89 230.67
  Q 226.72 226.86 236.22 226.49"
/>
<path stroke="#818e90" vector-effect="non-scaling-stroke" d="
  M 236.22 226.49
  Q 227.85 229.32 220.13 232.42
  Q 216.03 234.06 210.96 236.83
  Q 203.49 240.92 202.03 241.79
  Q 195.88 245.48 187.72 251.72
  Q 171.81 263.88 162.31 281.76
  A 0.49 0.49 0.0 0 0 162.90 282.45
  L 169.98 280.12"
/>
<path stroke="#6b756a" vector-effect="non-scaling-stroke" d="
  M 169.98 280.12
  Q 203.70 268.12 239.20 264.90"
/>
<path stroke="#334544" vector-effect="non-scaling-stroke" d="
  M 239.20 264.90
  L 239.88 265.21"
/>
<path stroke="#818e90" vector-effect="non-scaling-stroke" d="
  M 239.88 265.21
  Q 225.32 269.78 212.37 278.32"
/>
<path stroke="#6b756a" vector-effect="non-scaling-stroke" d="
  M 212.37 278.32
  Q 200.42 284.68 191.90 293.41
  C 177.74 307.91 167.20 325.15 157.76 345.31
  Q 152.61 356.32 147.97 372.23
  Q 143.15 388.78 141.20 400.10
  A 0.26 0.26 0.0 0 0 141.61 400.36
  L 162.26 385.29
  A 0.22 0.22 0.0 0 1 162.57 385.59
  C 153.73 399.51 146.53 409.66 138.97 423.43
  Q 134.94 430.78 125.39 447.41
  Q 114.92 465.63 108.29 485.37
  A 0.19 0.19 0.0 0 0 108.63 485.53
  Q 118.81 469.18 132.68 456.38
  A 0.27 0.27 0.0 0 1 133.13 456.60
  C 133.07 457.16 131.90 458.23 131.72 459.33
  Q 131.09 463.09 129.10 468.90
  A 0.49 0.49 0.0 0 0 129.83 469.46
  Q 130.83 468.77 132.75 467.81
  Q 147.42 460.44 164.75 456.46
  Q 167.90 455.74 171.20 455.50"
/>
<path stroke="#818e90" vector-effect="non-scaling-stroke" d="
  M 171.20 455.50
  Q 165.08 459.14 158.91 462.97
  Q 132.19 479.60 110.92 498.89
  Q 97.32 511.23 78.40 532.67
  A 2.36 2.00 85.3 0 0 78.15 533.02
  L 76.44 536.11"
/>
<path stroke="#6b756a" vector-effect="non-scaling-stroke" d="
  M 394.81 281.47
  Q 394.80 281.32 394.77 281.18
  A 0.14 0.14 0.0 0 0 394.51 281.15
  Q 394.32 281.50 393.95 281.68"
/>
<path stroke="#203436" vector-effect="non-scaling-stroke" d="
  M 393.95 281.68
  C 392.45 282.90 391.16 284.77 390.13 285.88
  Q 382.23 294.35 373.09 299.06
  Q 365.77 302.83 357.52 303.82
  A 0.27 0.27 0.0 0 0 357.42 304.33
  C 359.37 305.36 358.20 306.41 359.09 307.91
  Q 365.04 318.04 372.64 327.59
  Q 382.27 339.67 395.96 344.09
  Q 401.22 345.79 402.70 347.25
  Q 405.69 350.24 406.81 353.49
  Q 409.52 361.41 410.20 370.52"
/>
<path stroke="#6b756a" vector-effect="non-scaling-stroke" d="
  M 410.20 370.52
  Q 409.59 371.62 409.41 373.06
  A 0.28 0.28 0.0 0 0 409.91 373.26
  Q 415.05 366.16 418.36 357.98"
/>
<path stroke="#818e90" vector-effect="non-scaling-stroke" d="
  M 418.36 357.98
  Q 421.14 350.97 422.03 348.29
  C 429.61 325.34 426.42 301.33 411.07 282.32
  C 408.52 279.16 403.15 274.51 399.05 274.44
  A 2.52 2.52 0.0 0 0 396.62 276.15
  L 394.81 281.47"
/>
<path stroke="#e9e7d9" vector-effect="non-scaling-stroke" d="
  M 418.36 357.98
  Q 416.54 358.52 416.45 357.90
  Q 416.00 354.59 416.94 351.51
  A 4.25 3.93 -37.0 0 0 417.10 350.62
  Q 417.81 337.94 417.77 335.28
  Q 417.53 317.85 411.94 304.80
  Q 409.46 298.99 402.83 290.11
  A 1.65 1.56 -5.4 0 0 402.19 289.61
  Q 401.39 289.25 400.47 288.28
  Q 398.09 285.75 395.08 282.41
  A 0.92 0.90 22.5 0 1 394.84 281.85
  L 394.81 281.47"
/>
<path stroke="#888d80" vector-effect="non-scaling-stroke" d="
  M 410.20 370.52
  Q 413.58 358.36 413.38 345.55"
/>
<path stroke="#9b9e8e" vector-effect="non-scaling-stroke" d="
  M 413.38 345.55
  Q 413.97 344.86 413.70 342.77
  Q 411.54 326.31 404.19 314.08
  Q 400.01 307.13 395.93 301.78
  A 1.55 0.64 32.4 0 0 395.80 301.64
  L 391.41 297.88
  A 0.71 0.68 -16.8 0 0 391.08 297.71
  Q 389.98 297.46 389.61 296.93
  A 1.04 1.03 -49.5 0 1 389.53 295.88
  Q 390.16 294.62 390.31 293.21"
/>
<path stroke="#888d80" vector-effect="non-scaling-stroke" d="
  M 390.31 293.21
  Q 393.52 290.24 395.43 285.81
  A 1.06 1.06 0.0 0 0 395.34 284.80
  Q 394.36 283.36 393.95 281.68"
/>
<path stroke="#505d5a" vector-effect="non-scaling-stroke" d="
  M 390.31 293.21
  Q 383.94 302.33 374.74 307.02
  A 1.17 1.16 60.2 0 0 374.29 308.69
  Q 375.87 311.11 376.78 313.65
  C 379.49 321.24 383.82 327.09 390.36 332.15
  Q 393.24 334.37 398.17 338.57
  Q 399.08 339.34 403.10 340.82
  A 18.32 16.74 48.1 0 1 405.42 341.88
  Q 407.58 343.05 408.61 343.67
  Q 409.22 344.04 411.05 344.49
  Q 412.77 344.92 413.38 345.55"
/>
<path stroke="#e9e7d9" vector-effect="non-scaling-stroke" d="
  M 415.72 245.00
  L 409.86 243.16
  A 1.14 0.98 49.4 0 0 409.54 243.11
  L 400.05 243.11
  A 3.28 3.19 -55.3 0 0 398.83 243.35
  C 390.30 246.73 385.75 250.55 378.65 256.91
  C 376.09 259.20 372.68 261.72 370.42 263.61
  C 366.10 267.23 360.62 269.17 355.23 270.04
  C 348.69 271.10 340.26 265.71 336.58 260.52
  Q 336.28 260.10 333.21 256.46
  C 328.34 250.69 321.95 247.30 314.41 245.47
  Q 311.61 244.79 311.33 244.68
  Q 309.72 244.07 308.17 244.11
  C 306.37 244.15 304.98 243.17 303.23 243.14
  Q 299.06 243.07 296.00 243.12
  A 1.88 1.84 -26.3 0 1 294.84 242.74
  C 294.03 242.13 293.29 242.52 292.33 242.39
  Q 285.61 241.47 279.02 243.01
  A 4.41 4.03 36.2 0 1 278.10 243.11
  L 271.31 243.11
  A 5.18 5.09 34.5 0 0 269.55 243.42
  Q 266.76 244.41 263.14 244.09
  C 261.18 243.92 259.70 245.11 257.78 245.08
  C 255.35 245.04 253.48 246.32 251.02 246.09
  Q 250.09 246.00 248.25 246.36
  Q 233.35 249.30 223.26 252.07
  Q 212.51 255.02 198.48 261.07
  Q 192.37 263.71 186.57 267.27
  Q 178.33 272.32 175.26 274.53
  Q 172.94 276.19 169.98 280.12"
/>
<path stroke="#efcf96" vector-effect="non-scaling-stroke" d="
  M 236.22 226.49
  Q 250.43 223.13 265.67 222.32"
/>
<path stroke="#ffea9d" vector-effect="non-scaling-stroke" d="
  M 265.67 222.32
  L 287.44 221.78
  A 0.30 0.30 0.0 0 0 287.54 221.20
  Q 275.18 216.28 262.98 214.41
  Q 255.11 213.20 248.75 212.54
  Q 244.07 212.05 228.99 212.13
  Q 224.22 212.15 216.12 213.18
  Q 210.39 213.91 203.25 214.44
  Q 200.49 214.65 197.79 215.25"
/>
<path stroke="#efcf96" vector-effect="non-scaling-stroke" d="
  M 197.79 215.25
  L 177.29 218.05
  A 0.35 0.35 0.0 0 1 177.04 217.41
  Q 181.49 214.38 187.59 212.63"
/>
<path stroke="#818e90" vector-effect="non-scaling-stroke" d="
  M 187.59 212.63
  Q 192.51 210.68 198.01 209.57
  Q 206.45 207.85 220.20 204.21
  Q 262.34 193.07 304.38 198.27
  Q 311.11 199.10 316.44 200.62
  A 0.18 0.18 0.0 0 0 316.57 200.28
  Q 308.17 196.03 298.73 193.60
  Q 291.42 191.72 278.00 190.44
  Q 268.31 189.52 249.74 190.70"
/>
<path stroke="#ffea9d" vector-effect="non-scaling-stroke" d="
  M 249.74 190.70
  Q 241.40 187.20 234.63 186.33
  Q 230.91 185.85 229.28 185.21
  A 2.40 1.79 53.2 0 0 228.84 185.08
  Q 219.97 183.47 215.73 182.02
  C 207.35 179.15 198.34 176.47 190.43 173.09
  Q 169.18 164.02 152.79 152.46
  Q 141.13 144.23 124.92 126.95
  C 119.68 121.35 114.73 114.26 111.30 108.44
  Q 100.74 90.51 95.60 69.69"
/>
<path stroke="#efcf96" vector-effect="non-scaling-stroke" d="
  M 95.60 69.69
  L 94.80 48.52"
/>
<path stroke="#efba34" vector-effect="non-scaling-stroke" d="
  M 95.60 69.69
  Q 94.64 82.26 97.87 95.18
  Q 100.39 105.22 103.97 114.81
  Q 107.56 124.41 113.51 132.91
  C 121.03 143.65 129.69 153.82 140.56 162.00
  Q 155.75 173.43 173.80 181.28
  A 0.61 0.61 0.0 0 1 173.49 182.45
  Q 171.63 182.27 169.40 181.57
  Q 168.63 181.33 168.37 181.96
  Q 168.19 182.40 168.40 183.15"
/>
<path stroke="#81792e" vector-effect="non-scaling-stroke" d="
  M 249.74 190.70
  Q 232.66 192.46 224.00 195.15
  Q 218.01 197.00 212.08 199.02
  Q 198.59 203.60 186.86 211.51"
/>
<path stroke="#efba34" vector-effect="non-scaling-stroke" d="
  M 186.86 211.51
  Q 182.05 212.10 178.13 214.65
  A 2.02 1.96 29.3 0 1 176.96 214.96
  Q 158.01 214.01 140.17 209.62
  Q 126.52 206.26 111.24 197.02
  A 1.16 0.93 -17.5 0 0 110.88 196.88
  C 109.31 196.56 106.75 194.33 103.22 191.89
  C 95.59 186.60 87.61 177.84 83.90 169.75
  Q 83.24 168.31 81.82 165.61
  A 0.54 0.54 0.0 0 1 82.68 164.97
  L 86.89 169.11
  A 2.47 2.47 0.0 0 0 87.45 169.53
  Q 88.36 169.97 91.31 172.68
  Q 94.71 175.81 98.81 178.59
  Q 102.49 181.09 107.10 183.29
  Q 115.25 187.18 115.92 187.50
  Q 125.29 191.81 135.31 193.76
  A 4.17 3.60 57.3 0 1 136.02 193.97
  Q 142.10 196.48 148.46 196.09
  A 0.41 0.41 0.0 0 0 148.54 195.29
  Q 142.46 193.63 130.68 189.94
  Q 121.53 187.08 115.96 184.52
  Q 108.54 181.11 102.10 177.14
  Q 82.40 164.98 70.87 143.80
  A 4.58 4.27 -69.5 0 1 70.53 142.98
  Q 69.84 140.61 69.18 139.84
  Q 66.17 136.33 63.02 132.02"
/>
<path stroke="#ffea9d" vector-effect="non-scaling-stroke" d="
  M 77.87 147.05
  Q 83.55 155.62 90.86 160.67
  Q 96.78 164.76 99.32 166.22
  Q 101.03 167.21 108.41 171.47
  A 3.37 3.18 65.1 0 0 109.14 171.76
  Q 110.60 172.12 111.86 173.03
  C 114.11 174.65 117.22 174.80 119.25 176.85
  A 3.93 3.91 76.3 0 0 120.82 177.81
  L 146.32 185.79
  A 3.64 2.90 51.4 0 0 146.98 185.94
  Q 150.79 186.45 154.15 187.52
  A 2.66 2.58 -33.3 0 0 154.83 187.65
  Q 157.22 187.84 163.01 188.84
  C 174.12 190.76 185.87 192.61 197.63 193.21
  C 197.78 193.22 197.97 193.40 198.09 193.47
  A 1.56 1.54 -28.6 0 0 198.85 193.69
  L 216.11 194.16
  A 0.56 0.56 0.0 0 0 216.68 193.60
  L 216.68 193.21
  A 0.72 0.71 -86.4 0 0 216.06 192.50
  Q 202.12 190.68 197.46 189.57
  Q 185.26 186.65 178.26 186.39"
/>
<path stroke="#715e26" vector-effect="non-scaling-stroke" d="
  M 186.86 211.51
  Q 186.65 212.22 187.59 212.63"
/>
<path stroke="#efba34" vector-effect="non-scaling-stroke" d="
  M 197.79 215.25
  L 201.30 215.38
  A 0.38 0.38 0.0 0 1 201.58 215.99
  Q 200.28 217.65 198.02 218.53"
/>
<path stroke="#efba34" vector-effect="non-scaling-stroke" d="
  M 265.67 222.32
  Q 267.84 220.51 271.30 220.99
  A 0.30 0.30 0.0 0 0 271.64 220.66
  Q 271.59 220.14 271.78 219.71
  A 0.33 0.33 0.0 0 0 271.55 219.25
  Q 263.04 217.42 257.55 216.82
  Q 238.94 214.79 219.97 216.68
  Q 213.80 217.29 200.39 219.66
  Q 199.19 219.87 196.68 219.44"
/>
<path stroke="#888d80" vector-effect="non-scaling-stroke" d="
  M 355.32 340.50
  Q 355.16 354.98 351.98 367.11"
/>
<path stroke="#e9e7d9" vector-effect="non-scaling-stroke" d="
  M 265.01 593.53
  Q 268.53 590.69 271.83 588.00
  Q 275.66 584.89 278.42 582.23
  Q 299.76 561.64 310.97 534.51
  Q 318.80 515.56 318.05 495.25
  Q 317.98 493.27 317.44 492.19
  A 1.19 1.19 0.0 0 1 319.04 490.59
  Q 321.79 491.96 325.95 496.04
  C 333.45 503.39 338.44 513.85 342.28 523.88
  A 0.62 0.61 53.5 0 0 343.34 524.04
  C 344.50 522.56 344.15 519.72 344.03 515.76
  Q 343.92 512.28 342.14 503.00
  Q 340.69 495.44 338.87 490.57
  Q 332.30 473.01 321.60 461.25
  Q 313.31 452.14 300.42 443.89
  Q 298.01 442.36 286.38 436.13
  Q 283.34 434.50 279.32 432.85
  Q 275.15 431.14 272.17 429.79
  Q 263.63 425.92 250.53 421.51
  Q 248.96 420.98 246.73 420.02
  A 0.80 0.80 0.0 0 1 246.80 418.52
  Q 265.23 412.72 279.69 400.02
  C 281.78 398.19 284.25 396.82 285.72 394.62
  A 0.36 0.35 -64.8 0 0 285.53 394.09
  Q 283.33 393.41 281.97 394.46
  A 1.75 1.72 -63.5 0 1 280.86 394.84
  C 277.68 394.80 273.80 396.15 270.37 395.00
  A 0.44 0.44 0.0 0 1 270.41 394.16
  Q 275.88 392.79 282.30 390.94
  C 286.51 389.73 290.98 387.22 295.12 385.37
  C 303.31 381.71 310.88 375.05 318.38 367.38
  Q 323.93 361.71 327.04 356.67
  Q 337.55 339.67 337.11 319.31
  A 5.58 5.53 36.6 0 0 336.88 317.80
  Q 336.38 316.13 336.15 314.17
  C 335.41 307.68 332.22 301.93 327.30 297.66
  Q 325.84 296.39 322.84 294.84
  Q 320.47 293.62 318.16 292.27"
/>
<path stroke="#6b756a" vector-effect="non-scaling-stroke" d="
  M 318.16 292.27
  Q 326.67 284.03 325.79 273.26
  C 324.95 262.97 318.57 256.02 309.11 252.66
  C 307.64 252.14 304.73 252.02 302.50 251.62
  A 4.23 3.95 46.9 0 0 301.60 251.56
  Q 287.14 252.01 280.58 263.57"
/>
<path stroke="#e9e7d9" vector-effect="non-scaling-stroke" d="
  M 280.58 263.57
  Q 261.31 261.54 242.53 265.24"
/>
<path stroke="#9b9e8e" vector-effect="non-scaling-stroke" d="
  M 242.53 265.24
  Q 241.42 264.41 239.20 264.90"
/>
<path stroke="#818e90" vector-effect="non-scaling-stroke" d="
  M 318.16 292.27
  C 309.81 299.71 297.01 300.57 287.91 294.06
  Q 278.41 287.27 277.69 274.98
  Q 277.41 270.19 280.58 263.57"
/>
<path stroke="#818e90" vector-effect="non-scaling-stroke" d="
  M 307.0319 273.6675
  A 6.34 5.78 93.6 0 0 313.1986 267.7029
  A 6.34 5.78 93.6 0 0 307.8281 261.0125
  A 6.34 5.78 93.6 0 0 301.6614 266.9771
  A 6.34 5.78 93.6 0 0 307.0319 273.6675"
/>
<path stroke="#e9e7d9" vector-effect="non-scaling-stroke" d="
  M 223.44 539.47
  Q 224.91 554.37 223.93 560.72
  Q 219.83 587.23 203.17 609.20"
/>
<path stroke="#e9e7d9" vector-effect="non-scaling-stroke" d="
  M 171.20 455.50
  Q 166.89 447.15 165.04 438.43
  C 163.34 430.46 163.94 423.33 163.87 414.42
  A 0.60 0.59 15.7 0 1 164.78 413.91
  Q 165.47 414.34 165.80 414.99
  Q 170.14 423.38 174.17 427.39
  A 0.68 0.68 0.0 0 0 175.32 426.78
  Q 174.39 422.09 173.65 418.46
  C 172.35 412.13 173.08 403.01 172.88 398.99
  Q 172.64 394.45 173.88 388.09
  Q 175.83 378.04 179.33 367.59
  A 0.46 0.45 77.0 0 0 178.58 367.12
  Q 173.02 372.59 165.97 376.00
  A 0.94 0.94 0.0 0 1 164.63 375.06
  L 164.94 371.66
  A 6.63 6.37 -35.1 0 1 165.19 370.38
  Q 165.65 369.37 167.10 361.28
  Q 167.86 357.05 171.54 344.30
  Q 173.15 338.69 175.43 333.40
  Q 179.43 324.13 180.06 322.80
  Q 186.97 308.13 197.85 294.53
  C 199.22 292.81 200.11 291.11 201.70 289.72
  Q 202.93 288.65 204.73 286.22
  Q 207.98 281.84 212.37 278.32"
/>
<path stroke="#b1b7b4" vector-effect="non-scaling-stroke" d="
  M 239.88 265.21
  L 242.53 265.24"
/>
</g>
<path fill="#031c20" d="
  M 546.00 338.67
  L 546.00 359.23
  C 545.38 366.32 545.09 374.29 544.17 380.59
  Q 540.38 406.42 533.25 431.75
  Q 530.86 440.26 529.24 443.90
  C 528.26 446.08 528.11 448.01 527.20 450.18
  Q 518.05 472.06 505.76 493.17
  C 500.99 501.38 497.11 506.20 489.86 516.13
  Q 467.88 546.21 437.15 569.18
  Q 430.10 574.45 423.26 578.56
  C 411.39 585.70 400.67 591.70 387.90 596.90
  Q 359.29 608.56 326.69 614.45
  Q 313.43 616.85 305.14 617.83
  Q 295.89 618.93 283.35 618.51
  Q 255.16 617.56 239.06 615.70
  Q 234.11 615.13 232.78 615.26
  Q 235.86 599.24 235.54 581.50
  Q 235.13 558.61 223.44 539.47
  L 219.23 532.74
  A 0.36 0.36 0.0 0 1 219.74 532.26
  Q 224.02 535.27 228.39 539.36
  C 230.37 541.20 233.01 542.60 234.32 544.49
  C 238.46 550.45 243.02 556.09 246.79 562.54
  Q 254.80 576.24 258.98 591.58
  A 2.67 2.67 0.0 0 0 261.57 593.55
  L 265.01 593.53
  Q 272.37 594.44 279.26 594.08
  Q 292.51 593.38 303.03 592.32
  Q 331.50 589.46 358.30 579.68
  A 1.72 1.72 0.0 0 0 359.37 578.53
  Q 365.43 556.68 366.99 534.80
  Q 368.81 509.24 362.50 482.99
  Q 355.50 453.90 338.58 432.66
  Q 337.21 430.96 332.82 427.66
  A 1.30 1.30 0.0 0 0 331.64 427.47
  Q 327.19 428.91 323.24 429.49
  Q 304.84 432.16 286.52 427.97
  Q 281.09 426.73 272.94 424.65
  A 0.18 0.18 0.0 0 1 272.98 424.29
  Q 274.99 424.25 276.77 423.78
  A 5.48 5.44 -53.9 0 1 277.95 423.59
  C 298.44 422.44 320.10 413.85 334.10 398.38
  Q 342.95 388.60 348.32 376.13
  Q 350.18 371.80 351.98 367.11
  Q 365.92 374.93 379.47 367.99
  Q 383.82 365.76 389.57 359.17
  A 0.35 0.34 16.8 0 0 389.26 358.60
  Q 388.47 358.71 388.00 358.35
  A 2.41 2.37 -25.8 0 0 386.65 357.89
  Q 380.71 357.76 379.77 357.50
  Q 373.50 355.83 367.41 352.38
  A 2.50 2.18 -3.9 0 1 366.91 352.00
  L 355.32 340.50
  Q 354.91 329.05 352.59 317.11
  Q 350.77 307.76 348.36 302.75
  Q 345.18 296.14 340.27 290.09
  A 0.51 0.50 -19.7 0 1 340.66 289.27
  C 341.88 289.26 343.04 289.92 344.01 290.00
  Q 360.42 291.23 372.87 282.04
  C 377.35 278.73 381.36 273.60 385.27 268.77
  C 391.99 260.47 403.38 257.13 413.79 259.67
  A 0.55 0.55 0.0 0 0 414.45 259.27
  Q 416.24 252.16 415.72 245.00
  Q 415.44 240.04 414.27 236.49
  C 404.69 207.19 376.79 190.03 348.45 182.07
  Q 332.79 177.67 315.37 175.29
  Q 305.79 173.98 284.84 173.04
  Q 266.85 172.24 254.25 171.48
  Q 230.01 170.02 204.95 162.52
  C 189.44 157.87 175.01 150.84 162.34 142.40
  C 137.22 125.66 116.61 102.15 105.54 73.81
  Q 99.31 57.87 96.71 41.60
  A 0.15 0.15 0.0 0 0 96.42 41.59
  L 94.80 48.52
  Q 90.94 58.97 89.68 66.93
  Q 87.82 78.61 88.50 94.76
  C 89.28 113.55 94.76 129.56 106.28 144.59
  Q 121.58 164.57 145.05 174.41
  Q 154.40 178.33 168.40 183.15
  L 178.26 186.39
  Q 151.15 182.55 131.62 176.88
  Q 102.84 168.53 77.87 147.05
  Q 74.18 142.80 70.10 138.28
  C 66.53 134.32 64.39 130.59 61.63 126.53
  A 0.21 0.21 0.0 0 0 61.25 126.72
  L 63.02 132.02
  C 64.84 143.90 68.28 154.50 73.08 165.89
  C 78.71 179.26 86.27 189.78 96.29 198.97
  C 107.35 209.12 122.39 215.78 137.02 218.90
  Q 155.71 222.87 176.21 222.61
  Q 186.96 222.47 197.53 218.16
  Q 197.88 218.01 198.02 218.53
  L 196.68 219.44
  C 187.77 223.20 179.96 227.87 169.71 233.19
  Q 148.10 244.41 123.95 247.99
  A 0.10 0.10 0.0 0 0 123.96 248.18
  Q 125.17 248.25 135.41 248.53
  Q 140.65 248.68 146.62 247.75
  Q 152.08 246.90 157.92 246.07
  Q 165.81 244.95 177.20 241.38
  Q 200.17 234.16 212.89 230.67
  Q 226.72 226.86 236.22 226.49
  Q 227.85 229.32 220.13 232.42
  Q 216.03 234.06 210.96 236.83
  Q 203.49 240.92 202.03 241.79
  Q 195.88 245.48 187.72 251.72
  Q 171.81 263.88 162.31 281.76
  A 0.49 0.49 0.0 0 0 162.90 282.45
  L 169.98 280.12
  Q 203.70 268.12 239.20 264.90
  L 239.88 265.21
  Q 225.32 269.78 212.37 278.32
  Q 200.42 284.68 191.90 293.41
  C 177.74 307.91 167.20 325.15 157.76 345.31
  Q 152.61 356.32 147.97 372.23
  Q 143.15 388.78 141.20 400.10
  A 0.26 0.26 0.0 0 0 141.61 400.36
  L 162.26 385.29
  A 0.22 0.22 0.0 0 1 162.57 385.59
  C 153.73 399.51 146.53 409.66 138.97 423.43
  Q 134.94 430.78 125.39 447.41
  Q 114.92 465.63 108.29 485.37
  A 0.19 0.19 0.0 0 0 108.63 485.53
  Q 118.81 469.18 132.68 456.38
  A 0.27 0.27 0.0 0 1 133.13 456.60
  C 133.07 457.16 131.90 458.23 131.72 459.33
  Q 131.09 463.09 129.10 468.90
  A 0.49 0.49 0.0 0 0 129.83 469.46
  Q 130.83 468.77 132.75 467.81
  Q 147.42 460.44 164.75 456.46
  Q 167.90 455.74 171.20 455.50
  Q 165.08 459.14 158.91 462.97
  Q 132.19 479.60 110.92 498.89
  Q 97.32 511.23 78.40 532.67
  A 2.36 2.00 85.3 0 0 78.15 533.02
  L 76.44 536.11
  Q 71.63 540.43 68.17 545.92
  Q 64.15 552.30 58.24 560.73
  Q 54.60 565.93 52.43 571.10
  A 0.23 0.23 0.0 0 1 51.99 571.02
  C 51.48 559.68 52.67 548.61 54.36 536.54
  Q 55.13 531.03 58.71 520.21
  Q 59.07 519.13 58.43 516.71
  A 2.06 2.01 17.7 0 0 58.01 515.92
  Q 54.57 511.99 51.24 507.26
  Q 20.66 463.73 8.05 412.65
  Q 2.62 390.66 1.07 368.48
  Q -0.45 346.64 1.36 323.75
  Q 1.97 316.13 5.14 297.54
  Q 7.88 281.47 10.75 271.65
  Q 19.61 241.35 33.72 215.96
  Q 39.31 205.92 44.00 198.34
  A 0.71 0.71 0.0 0 1 45.21 198.35
  C 48.83 204.25 53.53 213.37 59.06 219.70
  Q 60.64 221.51 59.22 223.72
  C 47.61 241.91 40.07 262.44 34.36 283.07
  Q 32.91 288.31 29.61 305.96
  Q 27.43 317.60 26.66 329.14
  C 24.66 359.11 27.36 387.93 35.79 416.18
  Q 41.23 434.40 47.48 448.54
  Q 56.66 469.31 72.49 490.50
  A 0.47 0.47 0.0 0 0 73.28 490.44
  C 74.84 487.55 75.57 484.70 77.35 481.19
  Q 85.53 465.10 93.76 452.50
  Q 99.94 443.02 107.81 432.14
  A 4.74 4.73 64.9 0 0 108.67 429.76
  Q 112.02 384.49 130.92 343.14
  Q 140.96 321.15 155.97 302.16
  A 0.57 0.56 37.7 0 0 155.86 301.36
  Q 155.12 300.83 154.07 301.13
  Q 151.34 301.90 145.98 303.93
  A 0.64 0.64 0.0 0 1 145.14 303.16
  C 147.01 296.44 149.47 289.94 153.10 284.34
  Q 155.09 281.27 155.63 279.81
  A 0.64 0.64 0.0 0 0 154.94 278.95
  Q 153.02 279.24 150.06 278.74
  Q 142.76 277.49 133.42 274.30
  Q 113.34 267.44 99.57 251.92
  Q 93.27 244.81 92.88 244.40
  Q 91.20 242.60 91.09 242.44
  A 0.93 0.93 0.0 0 1 91.86 240.98
  L 111.53 240.88
  A 6.16 5.97 36.9 0 0 113.04 240.69
  Q 116.07 239.95 118.63 239.92
  A 0.29 0.29 0.0 0 0 118.78 239.38
  Q 116.54 238.08 113.98 237.08
  C 100.63 231.90 88.48 223.11 79.26 212.53
  Q 66.12 197.45 59.03 180.74
  C 55.11 171.51 51.41 159.90 49.71 148.61
  Q 45.63 121.53 51.31 93.80
  Q 52.71 87.02 55.88 81.35
  A 0.61 0.61 0.0 0 1 57.01 81.50
  Q 62.03 102.02 72.43 120.72
  A 0.24 0.23 -57.5 0 0 72.87 120.62
  C 73.03 118.08 71.96 116.00 72.09 113.81
  C 72.25 110.99 71.20 107.07 71.06 103.76
  Q 70.01 79.66 74.25 62.22
  Q 82.37 28.90 103.41 2.15
  Q 104.05 1.33 104.82 0.91
  A 0.71 0.71 0.0 0 1 105.87 1.45
  Q 105.95 2.13 105.91 7.00
  C 105.67 36.82 115.67 65.51 133.38 89.39
  Q 146.29 106.80 165.20 120.45
  Q 191.72 139.58 223.67 148.08
  Q 245.50 153.88 265.93 155.52
  Q 275.08 156.26 302.00 157.83
  Q 315.19 158.60 337.61 162.70
  Q 344.58 163.97 351.91 166.38
  Q 363.79 170.27 365.92 171.10
  Q 379.28 176.28 391.75 184.26
  Q 410.47 196.22 421.64 214.63
  Q 424.40 219.19 427.35 227.18
  C 432.54 241.21 432.71 258.49 423.52 270.74
  A 1.91 1.91 0.0 0 0 423.70 273.24
  L 425.01 274.55
  A 1.84 1.84 0.0 0 1 425.43 275.20
  C 426.90 279.15 429.61 282.51 431.46 286.81
  Q 435.80 296.88 437.02 301.15
  Q 441.25 316.07 439.90 333.99
  Q 438.17 357.09 426.31 375.38
  C 415.19 392.52 400.05 405.88 380.40 411.63
  A 0.91 0.91 0.0 0 1 379.39 410.24
  Q 380.24 408.99 381.13 408.09
  Q 388.04 401.13 391.16 392.15
  Q 393.08 386.62 394.18 381.26
  A 0.70 0.70 0.0 0 0 393.07 380.56
  C 386.64 385.44 378.81 388.78 370.56 389.12
  Q 368.06 389.22 367.27 391.79
  Q 365.28 398.21 361.55 404.99
  C 360.32 407.22 358.84 408.63 357.39 410.38
  A 2.43 2.42 46.8 0 0 357.30 413.38
  C 361.52 419.10 366.55 425.78 370.15 432.46
  Q 377.49 446.08 382.77 459.97
  Q 395.67 493.90 393.95 530.52
  Q 393.46 540.91 391.83 553.77
  Q 391.04 560.02 388.99 565.44
  A 1.08 1.07 -1.6 0 0 390.43 566.80
  Q 392.97 565.69 395.32 564.31
  Q 404.42 558.97 412.74 553.23
  C 413.55 552.67 414.12 551.88 414.85 551.36
  Q 429.08 541.20 431.23 539.48
  Q 453.47 521.59 470.00 498.73
  Q 491.00 469.69 502.90 438.12
  Q 513.22 410.77 517.71 378.95
  C 518.80 371.22 518.86 363.62 519.37 355.66
  C 519.88 347.65 518.96 337.87 518.80 331.48
  Q 518.67 326.31 517.56 316.70
  Q 514.78 292.56 505.69 265.54
  Q 497.09 239.98 484.93 221.05
  C 471.94 200.83 456.57 181.34 438.94 166.33
  Q 425.46 154.84 411.17 145.05
  C 391.48 131.55 367.81 121.44 344.16 114.18
  Q 334.85 111.32 318.71 108.33
  Q 304.00 105.60 292.85 104.81
  Q 256.39 102.22 220.22 111.19
  C 213.46 112.87 207.40 115.11 199.89 117.54
  A 3.16 3.13 -42.4 0 1 197.73 117.45
  Q 183.44 111.47 170.07 103.41
  Q 169.39 103.00 168.98 102.54
  A 0.78 0.78 0.0 0 1 169.26 101.31
  C 177.99 97.61 190.33 92.69 200.44 89.81
  Q 224.98 82.82 243.53 80.72
  Q 311.92 73.01 375.00 97.36
  Q 391.87 103.87 410.32 113.86
  Q 416.55 117.23 421.98 121.01
  C 426.73 124.31 432.56 127.76 437.13 131.25
  Q 486.57 169.08 515.04 222.20
  C 524.23 239.34 532.15 259.50 536.97 279.64
  C 538.59 286.41 540.86 294.42 542.08 301.83
  Q 545.11 320.10 546.00 338.67
  Z
  M 394.81 281.47
  Q 394.80 281.32 394.77 281.18
  A 0.14 0.14 0.0 0 0 394.51 281.15
  Q 394.32 281.50 393.95 281.68
  C 392.45 282.90 391.16 284.77 390.13 285.88
  Q 382.23 294.35 373.09 299.06
  Q 365.77 302.83 357.52 303.82
  A 0.27 0.27 0.0 0 0 357.42 304.33
  C 359.37 305.36 358.20 306.41 359.09 307.91
  Q 365.04 318.04 372.64 327.59
  Q 382.27 339.67 395.96 344.09
  Q 401.22 345.79 402.70 347.25
  Q 405.69 350.24 406.81 353.49
  Q 409.52 361.41 410.20 370.52
  Q 409.59 371.62 409.41 373.06
  A 0.28 0.28 0.0 0 0 409.91 373.26
  Q 415.05 366.16 418.36 357.98
  Q 421.14 350.97 422.03 348.29
  C 429.61 325.34 426.42 301.33 411.07 282.32
  C 408.52 279.16 403.15 274.51 399.05 274.44
  A 2.52 2.52 0.0 0 0 396.62 276.15
  L 394.81 281.47
  Z"
/>
<path fill="#ffffff" d="
  M 415.72 245.00
  L 409.86 243.16
  A 1.14 0.98 49.4 0 0 409.54 243.11
  L 400.05 243.11
  A 3.28 3.19 -55.3 0 0 398.83 243.35
  C 390.30 246.73 385.75 250.55 378.65 256.91
  C 376.09 259.20 372.68 261.72 370.42 263.61
  C 366.10 267.23 360.62 269.17 355.23 270.04
  C 348.69 271.10 340.26 265.71 336.58 260.52
  Q 336.28 260.10 333.21 256.46
  C 328.34 250.69 321.95 247.30 314.41 245.47
  Q 311.61 244.79 311.33 244.68
  Q 309.72 244.07 308.17 244.11
  C 306.37 244.15 304.98 243.17 303.23 243.14
  Q 299.06 243.07 296.00 243.12
  A 1.88 1.84 -26.3 0 1 294.84 242.74
  C 294.03 242.13 293.29 242.52 292.33 242.39
  Q 285.61 241.47 279.02 243.01
  A 4.41 4.03 36.2 0 1 278.10 243.11
  L 271.31 243.11
  A 5.18 5.09 34.5 0 0 269.55 243.42
  Q 266.76 244.41 263.14 244.09
  C 261.18 243.92 259.70 245.11 257.78 245.08
  C 255.35 245.04 253.48 246.32 251.02 246.09
  Q 250.09 246.00 248.25 246.36
  Q 233.35 249.30 223.26 252.07
  Q 212.51 255.02 198.48 261.07
  Q 192.37 263.71 186.57 267.27
  Q 178.33 272.32 175.26 274.53
  Q 172.94 276.19 169.98 280.12
  L 162.90 282.45
  A 0.49 0.49 0.0 0 1 162.31 281.76
  Q 171.81 263.88 187.72 251.72
  Q 195.88 245.48 202.03 241.79
  Q 203.49 240.92 210.96 236.83
  Q 216.03 234.06 220.13 232.42
  Q 227.85 229.32 236.22 226.49
  Q 250.43 223.13 265.67 222.32
  L 287.44 221.78
  A 0.30 0.30 0.0 0 0 287.54 221.20
  Q 275.18 216.28 262.98 214.41
  Q 255.11 213.20 248.75 212.54
  Q 244.07 212.05 228.99 212.13
  Q 224.22 212.15 216.12 213.18
  Q 210.39 213.91 203.25 214.44
  Q 200.49 214.65 197.79 215.25
  L 177.29 218.05
  A 0.35 0.35 0.0 0 1 177.04 217.41
  Q 181.49 214.38 187.59 212.63
  Q 192.51 210.68 198.01 209.57
  Q 206.45 207.85 220.20 204.21
  Q 262.34 193.07 304.38 198.27
  Q 311.11 199.10 316.44 200.62
  A 0.18 0.18 0.0 0 0 316.57 200.28
  Q 308.17 196.03 298.73 193.60
  Q 291.42 191.72 278.00 190.44
  Q 268.31 189.52 249.74 190.70
  Q 241.40 187.20 234.63 186.33
  Q 230.91 185.85 229.28 185.21
  A 2.40 1.79 53.2 0 0 228.84 185.08
  Q 219.97 183.47 215.73 182.02
  C 207.35 179.15 198.34 176.47 190.43 173.09
  Q 169.18 164.02 152.79 152.46
  Q 141.13 144.23 124.92 126.95
  C 119.68 121.35 114.73 114.26 111.30 108.44
  Q 100.74 90.51 95.60 69.69
  L 94.80 48.52
  L 96.42 41.59
  A 0.15 0.15 0.0 0 1 96.71 41.60
  Q 99.31 57.87 105.54 73.81
  C 116.61 102.15 137.22 125.66 162.34 142.40
  C 175.01 150.84 189.44 157.87 204.95 162.52
  Q 230.01 170.02 254.25 171.48
  Q 266.85 172.24 284.84 173.04
  Q 305.79 173.98 315.37 175.29
  Q 332.79 177.67 348.45 182.07
  C 376.79 190.03 404.69 207.19 414.27 236.49
  Q 415.44 240.04 415.72 245.00
  Z"
/>
<path fill="#df9f2c" d="
  M 94.80 48.52
  L 95.60 69.69
  Q 94.64 82.26 97.87 95.18
  Q 100.39 105.22 103.97 114.81
  Q 107.56 124.41 113.51 132.91
  C 121.03 143.65 129.69 153.82 140.56 162.00
  Q 155.75 173.43 173.80 181.28
  A 0.61 0.61 0.0 0 1 173.49 182.45
  Q 171.63 182.27 169.40 181.57
  Q 168.63 181.33 168.37 181.96
  Q 168.19 182.40 168.40 183.15
  Q 154.40 178.33 145.05 174.41
  Q 121.58 164.57 106.28 144.59
  C 94.76 129.56 89.28 113.55 88.50 94.76
  Q 87.82 78.61 89.68 66.93
  Q 90.94 58.97 94.80 48.52
  Z"
/>
<path fill="#fed53b" d="
  M 249.74 190.70
  Q 232.66 192.46 224.00 195.15
  Q 218.01 197.00 212.08 199.02
  Q 198.59 203.60 186.86 211.51
  Q 182.05 212.10 178.13 214.65
  A 2.02 1.96 29.3 0 1 176.96 214.96
  Q 158.01 214.01 140.17 209.62
  Q 126.52 206.26 111.24 197.02
  A 1.16 0.93 -17.5 0 0 110.88 196.88
  C 109.31 196.56 106.75 194.33 103.22 191.89
  C 95.59 186.60 87.61 177.84 83.90 169.75
  Q 83.24 168.31 81.82 165.61
  A 0.54 0.54 0.0 0 1 82.68 164.97
  L 86.89 169.11
  A 2.47 2.47 0.0 0 0 87.45 169.53
  Q 88.36 169.97 91.31 172.68
  Q 94.71 175.81 98.81 178.59
  Q 102.49 181.09 107.10 183.29
  Q 115.25 187.18 115.92 187.50
  Q 125.29 191.81 135.31 193.76
  A 4.17 3.60 57.3 0 1 136.02 193.97
  Q 142.10 196.48 148.46 196.09
  A 0.41 0.41 0.0 0 0 148.54 195.29
  Q 142.46 193.63 130.68 189.94
  Q 121.53 187.08 115.96 184.52
  Q 108.54 181.11 102.10 177.14
  Q 82.40 164.98 70.87 143.80
  A 4.58 4.27 -69.5 0 1 70.53 142.98
  Q 69.84 140.61 69.18 139.84
  Q 66.17 136.33 63.02 132.02
  L 61.25 126.72
  A 0.21 0.21 0.0 0 1 61.63 126.53
  C 64.39 130.59 66.53 134.32 70.10 138.28
  Q 74.18 142.80 77.87 147.05
  Q 83.55 155.62 90.86 160.67
  Q 96.78 164.76 99.32 166.22
  Q 101.03 167.21 108.41 171.47
  A 3.37 3.18 65.1 0 0 109.14 171.76
  Q 110.60 172.12 111.86 173.03
  C 114.11 174.65 117.22 174.80 119.25 176.85
  A 3.93 3.91 76.3 0 0 120.82 177.81
  L 146.32 185.79
  A 3.64 2.90 51.4 0 0 146.98 185.94
  Q 150.79 186.45 154.15 187.52
  A 2.66 2.58 -33.3 0 0 154.83 187.65
  Q 157.22 187.84 163.01 188.84
  C 174.12 190.76 185.87 192.61 197.63 193.21
  C 197.78 193.22 197.97 193.40 198.09 193.47
  A 1.56 1.54 -28.6 0 0 198.85 193.69
  L 216.11 194.16
  A 0.56 0.56 0.0 0 0 216.68 193.60
  L 216.68 193.21
  A 0.72 0.71 -86.4 0 0 216.06 192.50
  Q 202.12 190.68 197.46 189.57
  Q 185.26 186.65 178.26 186.39
  L 168.40 183.15
  Q 168.19 182.40 168.37 181.96
  Q 168.63 181.33 169.40 181.57
  Q 171.63 182.27 173.49 182.45
  A 0.61 0.61 0.0 0 0 173.80 181.28
  Q 155.75 173.43 140.56 162.00
  C 129.69 153.82 121.03 143.65 113.51 132.91
  Q 107.56 124.41 103.97 114.81
  Q 100.39 105.22 97.87 95.18
  Q 94.64 82.26 95.60 69.69
  Q 100.74 90.51 111.30 108.44
  C 114.73 114.26 119.68 121.35 124.92 126.95
  Q 141.13 144.23 152.79 152.46
  Q 169.18 164.02 190.43 173.09
  C 198.34 176.47 207.35 179.15 215.73 182.02
  Q 219.97 183.47 228.84 185.08
  A 2.40 1.79 53.2 0 1 229.28 185.21
  Q 230.91 185.85 234.63 186.33
  Q 241.40 187.20 249.74 190.70
  Z"
/>
<path fill="#fed53b" d="
  M 398.30 162.87
  A 0.97 0.97 0.0 0 1 397.36 164.53
  C 395.75 163.93 395.20 163.77 393.66 162.97
  Q 371.10 151.14 352.96 146.57
  Q 330.25 140.86 306.99 139.02
  Q 300.77 138.52 274.78 136.90
  Q 256.84 135.77 240.69 133.10
  Q 239.23 132.85 234.89 131.40
  A 0.35 0.35 0.0 0 1 234.78 130.80
  Q 236.65 129.26 239.12 128.86
  Q 275.54 123.01 309.72 128.59
  Q 321.75 130.56 337.54 134.75
  Q 355.07 139.40 372.39 147.30
  C 380.13 150.83 386.13 154.69 393.50 159.26
  Q 394.95 160.15 398.30 162.87
  Z"
/>
<path fill="#df9f2c" d="
  M 186.86 211.51
  Q 186.65 212.22 187.59 212.63
  Q 181.49 214.38 177.04 217.41
  A 0.35 0.35 0.0 0 0 177.29 218.05
  L 197.79 215.25
  L 201.30 215.38
  A 0.38 0.38 0.0 0 1 201.58 215.99
  Q 200.28 217.65 198.02 218.53
  Q 197.88 218.01 197.53 218.16
  Q 186.96 222.47 176.21 222.61
  Q 155.71 222.87 137.02 218.90
  C 122.39 215.78 107.35 209.12 96.29 198.97
  C 86.27 189.78 78.71 179.26 73.08 165.89
  C 68.28 154.50 64.84 143.90 63.02 132.02
  Q 66.17 136.33 69.18 139.84
  Q 69.84 140.61 70.53 142.98
  A 4.58 4.27 -69.5 0 0 70.87 143.80
  Q 82.40 164.98 102.10 177.14
  Q 108.54 181.11 115.96 184.52
  Q 121.53 187.08 130.68 189.94
  Q 142.46 193.63 148.54 195.29
  A 0.41 0.41 0.0 0 1 148.46 196.09
  Q 142.10 196.48 136.02 193.97
  A 4.17 3.60 57.3 0 0 135.31 193.76
  Q 125.29 191.81 115.92 187.50
  Q 115.25 187.18 107.10 183.29
  Q 102.49 181.09 98.81 178.59
  Q 94.71 175.81 91.31 172.68
  Q 88.36 169.97 87.45 169.53
  A 2.47 2.47 0.0 0 1 86.89 169.11
  L 82.68 164.97
  A 0.54 0.54 0.0 0 0 81.82 165.61
  Q 83.24 168.31 83.90 169.75
  C 87.61 177.84 95.59 186.60 103.22 191.89
  C 106.75 194.33 109.31 196.56 110.88 196.88
  A 1.16 0.93 -17.5 0 1 111.24 197.02
  Q 126.52 206.26 140.17 209.62
  Q 158.01 214.01 176.96 214.96
  A 2.02 1.96 29.3 0 0 178.13 214.65
  Q 182.05 212.10 186.86 211.51
  Z"
/>
<path fill="#ffffff" d="
  M 77.87 147.05
  Q 102.84 168.53 131.62 176.88
  Q 151.15 182.55 178.26 186.39
  Q 185.26 186.65 197.46 189.57
  Q 202.12 190.68 216.06 192.50
  A 0.72 0.71 -86.4 0 1 216.68 193.21
  L 216.68 193.60
  A 0.56 0.56 0.0 0 1 216.11 194.16
  L 198.85 193.69
  A 1.56 1.54 -28.6 0 1 198.09 193.47
  C 197.97 193.40 197.78 193.22 197.63 193.21
  C 185.87 192.61 174.12 190.76 163.01 188.84
  Q 157.22 187.84 154.83 187.65
  A 2.66 2.58 -33.3 0 1 154.15 187.52
  Q 150.79 186.45 146.98 185.94
  A 3.64 2.90 51.4 0 1 146.32 185.79
  L 120.82 177.81
  A 3.93 3.91 76.3 0 1 119.25 176.85
  C 117.22 174.80 114.11 174.65 111.86 173.03
  Q 110.60 172.12 109.14 171.76
  A 3.37 3.18 65.1 0 1 108.41 171.47
  Q 101.03 167.21 99.32 166.22
  Q 96.78 164.76 90.86 160.67
  Q 83.55 155.62 77.87 147.05
  Z"
/>
<path fill="#eab53e" d="
  M 387.86 429.67
  Q 388.41 428.90 389.13 428.62
  C 406.76 421.81 423.26 410.27 434.69 395.16
  Q 455.95 367.02 457.63 333.61
  C 458.71 312.07 454.98 291.19 444.62 272.41
  Q 443.60 270.56 444.65 268.18
  C 447.69 261.33 448.94 254.04 448.88 246.07
  Q 448.64 212.76 424.43 187.65
  A 1.05 1.05 0.0 0 1 424.44 186.18
  L 424.88 185.74
  A 1.41 1.41 0.0 0 1 426.71 185.61
  Q 434.25 191.21 445.19 203.57
  Q 454.82 214.44 460.95 223.52
  Q 479.90 251.59 489.30 281.88
  Q 492.30 291.56 495.09 305.19
  Q 497.78 318.34 498.71 328.91
  Q 501.96 365.84 493.07 402.07
  Q 483.59 440.71 461.99 474.73
  C 449.54 494.34 433.17 511.14 416.01 525.26
  Q 414.19 526.75 412.46 527.81
  A 1.31 1.31 0.0 0 1 410.57 527.20
  Q 410.03 525.89 410.04 523.76
  C 410.18 509.61 410.18 496.58 407.51 483.50
  Q 401.68 455.00 387.83 430.21
  A 0.50 0.50 0.0 0 1 387.86 429.67
  Z"
/>
<path fill="#031c20" d="
  M 187.59 212.63
  Q 186.65 212.22 186.86 211.51
  Q 198.59 203.60 212.08 199.02
  Q 218.01 197.00 224.00 195.15
  Q 232.66 192.46 249.74 190.70
  Q 268.31 189.52 278.00 190.44
  Q 291.42 191.72 298.73 193.60
  Q 308.17 196.03 316.57 200.28
  A 0.18 0.18 0.0 0 1 316.44 200.62
  Q 311.11 199.10 304.38 198.27
  Q 262.34 193.07 220.20 204.21
  Q 206.45 207.85 198.01 209.57
  Q 192.51 210.68 187.59 212.63
  Z"
/>
<path fill="#fed53b" d="
  M 265.67 222.32
  Q 267.84 220.51 271.30 220.99
  A 0.30 0.30 0.0 0 0 271.64 220.66
  Q 271.59 220.14 271.78 219.71
  A 0.33 0.33 0.0 0 0 271.55 219.25
  Q 263.04 217.42 257.55 216.82
  Q 238.94 214.79 219.97 216.68
  Q 213.80 217.29 200.39 219.66
  Q 199.19 219.87 196.68 219.44
  L 198.02 218.53
  Q 200.28 217.65 201.58 215.99
  A 0.38 0.38 0.0 0 0 201.30 215.38
  L 197.79 215.25
  Q 200.49 214.65 203.25 214.44
  Q 210.39 213.91 216.12 213.18
  Q 224.22 212.15 228.99 212.13
  Q 244.07 212.05 248.75 212.54
  Q 255.11 213.20 262.98 214.41
  Q 275.18 216.28 287.54 221.20
  A 0.30 0.30 0.0 0 1 287.44 221.78
  L 265.67 222.32
  Z"
/>
<path fill="#df9f2c" d="
  M 265.67 222.32
  Q 250.43 223.13 236.22 226.49
  Q 226.72 226.86 212.89 230.67
  Q 200.17 234.16 177.20 241.38
  Q 165.81 244.95 157.92 246.07
  Q 152.08 246.90 146.62 247.75
  Q 140.65 248.68 135.41 248.53
  Q 125.17 248.25 123.96 248.18
  A 0.10 0.10 0.0 0 1 123.95 247.99
  Q 148.10 244.41 169.71 233.19
  C 179.96 227.87 187.77 223.20 196.68 219.44
  Q 199.19 219.87 200.39 219.66
  Q 213.80 217.29 219.97 216.68
  Q 238.94 214.79 257.55 216.82
  Q 263.04 217.42 271.55 219.25
  A 0.33 0.33 0.0 0 1 271.78 219.71
  Q 271.59 220.14 271.64 220.66
  A 0.30 0.30 0.0 0 1 271.30 220.99
  Q 267.84 220.51 265.67 222.32
  Z"
/>
<path fill="#d2ceb3" d="
  M 415.72 245.00
  Q 416.24 252.16 414.45 259.27
  A 0.55 0.55 0.0 0 1 413.79 259.67
  C 403.38 257.13 391.99 260.47 385.27 268.77
  C 381.36 273.60 377.35 278.73 372.87 282.04
  Q 360.42 291.23 344.01 290.00
  C 343.04 289.92 341.88 289.26 340.66 289.27
  A 0.51 0.50 -19.7 0 0 340.27 290.09
  Q 345.18 296.14 348.36 302.75
  Q 350.77 307.76 352.59 317.11
  Q 354.91 329.05 355.32 340.50
  Q 355.16 354.98 351.98 367.11
  Q 350.18 371.80 348.32 376.13
  Q 342.95 388.60 334.10 398.38
  C 320.10 413.85 298.44 422.44 277.95 423.59
  A 5.48 5.44 -53.9 0 0 276.77 423.78
  Q 274.99 424.25 272.98 424.29
  A 0.18 0.18 0.0 0 0 272.94 424.65
  Q 281.09 426.73 286.52 427.97
  Q 304.84 432.16 323.24 429.49
  Q 327.19 428.91 331.64 427.47
  A 1.30 1.30 0.0 0 1 332.82 427.66
  Q 337.21 430.96 338.58 432.66
  Q 355.50 453.90 362.50 482.99
  Q 368.81 509.24 366.99 534.80
  Q 365.43 556.68 359.37 578.53
  A 1.72 1.72 0.0 0 1 358.30 579.68
  Q 331.50 589.46 303.03 592.32
  Q 292.51 593.38 279.26 594.08
  Q 272.37 594.44 265.01 593.53
  Q 268.53 590.69 271.83 588.00
  Q 275.66 584.89 278.42 582.23
  Q 299.76 561.64 310.97 534.51
  Q 318.80 515.56 318.05 495.25
  Q 317.98 493.27 317.44 492.19
  A 1.19 1.19 0.0 0 1 319.04 490.59
  Q 321.79 491.96 325.95 496.04
  C 333.45 503.39 338.44 513.85 342.28 523.88
  A 0.62 0.61 53.5 0 0 343.34 524.04
  C 344.50 522.56 344.15 519.72 344.03 515.76
  Q 343.92 512.28 342.14 503.00
  Q 340.69 495.44 338.87 490.57
  Q 332.30 473.01 321.60 461.25
  Q 313.31 452.14 300.42 443.89
  Q 298.01 442.36 286.38 436.13
  Q 283.34 434.50 279.32 432.85
  Q 275.15 431.14 272.17 429.79
  Q 263.63 425.92 250.53 421.51
  Q 248.96 420.98 246.73 420.02
  A 0.80 0.80 0.0 0 1 246.80 418.52
  Q 265.23 412.72 279.69 400.02
  C 281.78 398.19 284.25 396.82 285.72 394.62
  A 0.36 0.35 -64.8 0 0 285.53 394.09
  Q 283.33 393.41 281.97 394.46
  A 1.75 1.72 -63.5 0 1 280.86 394.84
  C 277.68 394.80 273.80 396.15 270.37 395.00
  A 0.44 0.44 0.0 0 1 270.41 394.16
  Q 275.88 392.79 282.30 390.94
  C 286.51 389.73 290.98 387.22 295.12 385.37
  C 303.31 381.71 310.88 375.05 318.38 367.38
  Q 323.93 361.71 327.04 356.67
  Q 337.55 339.67 337.11 319.31
  A 5.58 5.53 36.6 0 0 336.88 317.80
  Q 336.38 316.13 336.15 314.17
  C 335.41 307.68 332.22 301.93 327.30 297.66
  Q 325.84 296.39 322.84 294.84
  Q 320.47 293.62 318.16 292.27
  Q 326.67 284.03 325.79 273.26
  C 324.95 262.97 318.57 256.02 309.11 252.66
  C 307.64 252.14 304.73 252.02 302.50 251.62
  A 4.23 3.95 46.9 0 0 301.60 251.56
  Q 287.14 252.01 280.58 263.57
  Q 261.31 261.54 242.53 265.24
  Q 241.42 264.41 239.20 264.90
  Q 203.70 268.12 169.98 280.12
  Q 172.94 276.19 175.26 274.53
  Q 178.33 272.32 186.57 267.27
  Q 192.37 263.71 198.48 261.07
  Q 212.51 255.02 223.26 252.07
  Q 233.35 249.30 248.25 246.36
  Q 250.09 246.00 251.02 246.09
  C 253.48 246.32 255.35 245.04 257.78 245.08
  C 259.70 245.11 261.18 243.92 263.14 244.09
  Q 266.76 244.41 269.55 243.42
  A 5.18 5.09 34.5 0 1 271.31 243.11
  L 278.10 243.11
  A 4.41 4.03 36.2 0 0 279.02 243.01
  Q 285.61 241.47 292.33 242.39
  C 293.29 242.52 294.03 242.13 294.84 242.74
  A 1.88 1.84 -26.3 0 0 296.00 243.12
  Q 299.06 243.07 303.23 243.14
  C 304.98 243.17 306.37 244.15 308.17 244.11
  Q 309.72 244.07 311.33 244.68
  Q 311.61 244.79 314.41 245.47
  C 321.95 247.30 328.34 250.69 333.21 256.46
  Q 336.28 260.10 336.58 260.52
  C 340.26 265.71 348.69 271.10 355.23 270.04
  C 360.62 269.17 366.10 267.23 370.42 263.61
  C 372.68 261.72 376.09 259.20 378.65 256.91
  C 385.75 250.55 390.30 246.73 398.83 243.35
  A 3.28 3.19 -55.3 0 1 400.05 243.11
  L 409.54 243.11
  A 1.14 0.98 49.4 0 1 409.86 243.16
  L 415.72 245.00
  Z"
/>
<path fill="#eab53e" d="
  M 70.12 246.63
  A 0.49 0.48 55.4 0 1 70.81 246.76
  Q 73.66 251.24 75.95 254.55
  Q 90.82 275.94 113.93 288.04
  Q 120.46 291.47 127.27 294.14
  A 2.34 2.33 -75.9 0 1 128.73 296.59
  Q 128.13 301.66 127.23 306.96
  C 126.86 309.18 127.47 312.62 125.83 315.05
  Q 117.10 327.95 111.10 342.36
  Q 100.42 368.05 94.23 396.50
  Q 91.05 411.15 90.91 424.39
  C 90.89 426.01 89.73 427.93 88.55 429.24
  Q 79.89 438.92 72.60 449.65
  A 0.72 0.72 0.0 0 1 71.37 449.58
  Q 62.45 432.49 57.44 415.52
  Q 51.44 395.24 49.09 376.49
  C 48.08 368.40 47.14 361.83 46.97 353.44
  Q 46.66 337.71 48.17 323.02
  Q 49.40 311.13 51.76 300.67
  Q 55.68 283.28 57.21 278.70
  Q 62.23 263.61 69.13 247.87
  Q 69.47 247.10 70.12 246.63
  Z"
/>
<path fill="#031c20" d="
  M 318.16 292.27
  C 309.81 299.71 297.01 300.57 287.91 294.06
  Q 278.41 287.27 277.69 274.98
  Q 277.41 270.19 280.58 263.57
  Q 287.14 252.01 301.60 251.56
  A 4.23 3.95 46.9 0 1 302.50 251.62
  C 304.73 252.02 307.64 252.14 309.11 252.66
  C 318.57 256.02 324.95 262.97 325.79 273.26
  Q 326.67 284.03 318.16 292.27
  Z
  M 307.0319 273.6675
  A 6.34 5.78 93.6 0 0 313.1986 267.7029
  A 6.34 5.78 93.6 0 0 307.8281 261.0125
  A 6.34 5.78 93.6 0 0 301.6614 266.9771
  A 6.34 5.78 93.6 0 0 307.0319 273.6675
  Z"
/>
<ellipse fill="#ffffff" cx="0.00" cy="0.00" transform="translate(307.43,267.34) rotate(93.6)" rx="6.34" ry="5.78"/>
<path fill="#ffffff" d="
  M 280.58 263.57
  Q 277.41 270.19 277.69 274.98
  Q 278.41 287.27 287.91 294.06
  C 297.01 300.57 309.81 299.71 318.16 292.27
  Q 320.47 293.62 322.84 294.84
  Q 325.84 296.39 327.30 297.66
  C 332.22 301.93 335.41 307.68 336.15 314.17
  Q 336.38 316.13 336.88 317.80
  A 5.58 5.53 36.6 0 1 337.11 319.31
  Q 337.55 339.67 327.04 356.67
  Q 323.93 361.71 318.38 367.38
  C 310.88 375.05 303.31 381.71 295.12 385.37
  C 290.98 387.22 286.51 389.73 282.30 390.94
  Q 275.88 392.79 270.41 394.16
  A 0.44 0.44 0.0 0 0 270.37 395.00
  C 273.80 396.15 277.68 394.80 280.86 394.84
  A 1.75 1.72 -63.5 0 0 281.97 394.46
  Q 283.33 393.41 285.53 394.09
  A 0.36 0.35 -64.8 0 1 285.72 394.62
  C 284.25 396.82 281.78 398.19 279.69 400.02
  Q 265.23 412.72 246.80 418.52
  A 0.80 0.80 0.0 0 0 246.73 420.02
  Q 248.96 420.98 250.53 421.51
  Q 263.63 425.92 272.17 429.79
  Q 275.15 431.14 279.32 432.85
  Q 283.34 434.50 286.38 436.13
  Q 298.01 442.36 300.42 443.89
  Q 313.31 452.14 321.60 461.25
  Q 332.30 473.01 338.87 490.57
  Q 340.69 495.44 342.14 503.00
  Q 343.92 512.28 344.03 515.76
  C 344.15 519.72 344.50 522.56 343.34 524.04
  A 0.62 0.61 53.5 0 1 342.28 523.88
  C 338.44 513.85 333.45 503.39 325.95 496.04
  Q 321.79 491.96 319.04 490.59
  A 1.19 1.19 0.0 0 0 317.44 492.19
  Q 317.98 493.27 318.05 495.25
  Q 318.80 515.56 310.97 534.51
  Q 299.76 561.64 278.42 582.23
  Q 275.66 584.89 271.83 588.00
  Q 268.53 590.69 265.01 593.53
  L 261.57 593.55
  A 2.67 2.67 0.0 0 1 258.98 591.58
  Q 254.80 576.24 246.79 562.54
  C 243.02 556.09 238.46 550.45 234.32 544.49
  C 233.01 542.60 230.37 541.20 228.39 539.36
  Q 224.02 535.27 219.74 532.26
  A 0.36 0.36 0.0 0 0 219.23 532.74
  L 223.44 539.47
  Q 224.91 554.37 223.93 560.72
  Q 219.83 587.23 203.17 609.20
  Q 196.26 607.70 184.01 604.20
  Q 178.84 602.73 175.32 601.26
  C 166.59 597.60 157.97 594.93 149.41 590.33
  C 139.11 584.78 128.08 578.83 118.36 571.84
  Q 103.12 560.89 89.34 549.72
  Q 85.92 546.94 83.03 543.87
  C 81.33 542.06 78.36 539.35 76.44 536.11
  L 78.15 533.02
  A 2.36 2.00 85.3 0 1 78.40 532.67
  Q 97.32 511.23 110.92 498.89
  Q 132.19 479.60 158.91 462.97
  Q 165.08 459.14 171.20 455.50
  Q 166.89 447.15 165.04 438.43
  C 163.34 430.46 163.94 423.33 163.87 414.42
  A 0.60 0.59 15.7 0 1 164.78 413.91
  Q 165.47 414.34 165.80 414.99
  Q 170.14 423.38 174.17 427.39
  A 0.68 0.68 0.0 0 0 175.32 426.78
  Q 174.39 422.09 173.65 418.46
  C 172.35 412.13 173.08 403.01 172.88 398.99
  Q 172.64 394.45 173.88 388.09
  Q 175.83 378.04 179.33 367.59
  A 0.46 0.45 77.0 0 0 178.58 367.12
  Q 173.02 372.59 165.97 376.00
  A 0.94 0.94 0.0 0 1 164.63 375.06
  L 164.94 371.66
  A 6.63 6.37 -35.1 0 1 165.19 370.38
  Q 165.65 369.37 167.10 361.28
  Q 167.86 357.05 171.54 344.30
  Q 173.15 338.69 175.43 333.40
  Q 179.43 324.13 180.06 322.80
  Q 186.97 308.13 197.85 294.53
  C 199.22 292.81 200.11 291.11 201.70 289.72
  Q 202.93 288.65 204.73 286.22
  Q 207.98 281.84 212.37 278.32
  Q 225.32 269.78 239.88 265.21
  L 242.53 265.24
  Q 261.31 261.54 280.58 263.57
  Z"
/>
<path fill="#636e68" d="
  M 242.53 265.24
  L 239.88 265.21
  L 239.20 264.90
  Q 241.42 264.41 242.53 265.24
  Z"
/>
<path fill="#ffffff" d="
  M 418.36 357.98
  Q 416.54 358.52 416.45 357.90
  Q 416.00 354.59 416.94 351.51
  A 4.25 3.93 -37.0 0 0 417.10 350.62
  Q 417.81 337.94 417.77 335.28
  Q 417.53 317.85 411.94 304.80
  Q 409.46 298.99 402.83 290.11
  A 1.65 1.56 -5.4 0 0 402.19 289.61
  Q 401.39 289.25 400.47 288.28
  Q 398.09 285.75 395.08 282.41
  A 0.92 0.90 22.5 0 1 394.84 281.85
  L 394.81 281.47
  L 396.62 276.15
  A 2.52 2.52 0.0 0 1 399.05 274.44
  C 403.15 274.51 408.52 279.16 411.07 282.32
  C 426.42 301.33 429.61 325.34 422.03 348.29
  Q 421.14 350.97 418.36 357.98
  Z"
/>
<path fill="#d2ceb3" d="
  M 212.37 278.32
  Q 207.98 281.84 204.73 286.22
  Q 202.93 288.65 201.70 289.72
  C 200.11 291.11 199.22 292.81 197.85 294.53
  Q 186.97 308.13 180.06 322.80
  Q 179.43 324.13 175.43 333.40
  Q 173.15 338.69 171.54 344.30
  Q 167.86 357.05 167.10 361.28
  Q 165.65 369.37 165.19 370.38
  A 6.63 6.37 -35.1 0 0 164.94 371.66
  L 164.63 375.06
  A 0.94 0.94 0.0 0 0 165.97 376.00
  Q 173.02 372.59 178.58 367.12
  A 0.46 0.45 77.0 0 1 179.33 367.59
  Q 175.83 378.04 173.88 388.09
  Q 172.64 394.45 172.88 398.99
  C 173.08 403.01 172.35 412.13 173.65 418.46
  Q 174.39 422.09 175.32 426.78
  A 0.68 0.68 0.0 0 1 174.17 427.39
  Q 170.14 423.38 165.80 414.99
  Q 165.47 414.34 164.78 413.91
  A 0.60 0.59 15.7 0 0 163.87 414.42
  C 163.94 423.33 163.34 430.46 165.04 438.43
  Q 166.89 447.15 171.20 455.50
  Q 167.90 455.74 164.75 456.46
  Q 147.42 460.44 132.75 467.81
  Q 130.83 468.77 129.83 469.46
  A 0.49 0.49 0.0 0 1 129.10 468.90
  Q 131.09 463.09 131.72 459.33
  C 131.90 458.23 133.07 457.16 133.13 456.60
  A 0.27 0.27 0.0 0 0 132.68 456.38
  Q 118.81 469.18 108.63 485.53
  A 0.19 0.19 0.0 0 1 108.29 485.37
  Q 114.92 465.63 125.39 447.41
  Q 134.94 430.78 138.97 423.43
  C 146.53 409.66 153.73 399.51 162.57 385.59
  A 0.22 0.22 0.0 0 0 162.26 385.29
  L 141.61 400.36
  A 0.26 0.26 0.0 0 1 141.20 400.10
  Q 143.15 388.78 147.97 372.23
  Q 152.61 356.32 157.76 345.31
  C 167.20 325.15 177.74 307.91 191.90 293.41
  Q 200.42 284.68 212.37 278.32
  Z"
/>
<path fill="#d2ceb3" d="
  M 394.81 281.47
  L 394.84 281.85
  A 0.92 0.90 22.5 0 0 395.08 282.41
  Q 398.09 285.75 400.47 288.28
  Q 401.39 289.25 402.19 289.61
  A 1.65 1.56 -5.4 0 1 402.83 290.11
  Q 409.46 298.99 411.94 304.80
  Q 417.53 317.85 417.77 335.28
  Q 417.81 337.94 417.10 350.62
  A 4.25 3.93 -37.0 0 1 416.94 351.51
  Q 416.00 354.59 416.45 357.90
  Q 416.54 358.52 418.36 357.98
  Q 415.05 366.16 409.91 373.26
  A 0.28 0.28 0.0 0 1 409.41 373.06
  Q 409.59 371.62 410.20 370.52
  Q 413.58 358.36 413.38 345.55
  Q 413.97 344.86 413.70 342.77
  Q 411.54 326.31 404.19 314.08
  Q 400.01 307.13 395.93 301.78
  A 1.55 0.64 32.4 0 0 395.80 301.64
  L 391.41 297.88
  A 0.71 0.68 -16.8 0 0 391.08 297.71
  Q 389.98 297.46 389.61 296.93
  A 1.04 1.03 -49.5 0 1 389.53 295.88
  Q 390.16 294.62 390.31 293.21
  Q 393.52 290.24 395.43 285.81
  A 1.06 1.06 0.0 0 0 395.34 284.80
  Q 394.36 283.36 393.95 281.68
  Q 394.32 281.50 394.51 281.15
  A 0.14 0.14 0.0 0 1 394.77 281.18
  Q 394.80 281.32 394.81 281.47
  Z"
/>
<path fill="#3d4b4c" d="
  M 393.95 281.68
  Q 394.36 283.36 395.34 284.80
  A 1.06 1.06 0.0 0 1 395.43 285.81
  Q 393.52 290.24 390.31 293.21
  Q 383.94 302.33 374.74 307.02
  A 1.17 1.16 60.2 0 0 374.29 308.69
  Q 375.87 311.11 376.78 313.65
  C 379.49 321.24 383.82 327.09 390.36 332.15
  Q 393.24 334.37 398.17 338.57
  Q 399.08 339.34 403.10 340.82
  A 18.32 16.74 48.1 0 1 405.42 341.88
  Q 407.58 343.05 408.61 343.67
  Q 409.22 344.04 411.05 344.49
  Q 412.77 344.92 413.38 345.55
  Q 413.58 358.36 410.20 370.52
  Q 409.52 361.41 406.81 353.49
  Q 405.69 350.24 402.70 347.25
  Q 401.22 345.79 395.96 344.09
  Q 382.27 339.67 372.64 327.59
  Q 365.04 318.04 359.09 307.91
  C 358.20 306.41 359.37 305.36 357.42 304.33
  A 0.27 0.27 0.0 0 1 357.52 303.82
  Q 365.77 302.83 373.09 299.06
  Q 382.23 294.35 390.13 285.88
  C 391.16 284.77 392.45 282.90 393.95 281.68
  Z"
/>
<path fill="#636e68" d="
  M 390.31 293.21
  Q 390.16 294.62 389.53 295.88
  A 1.04 1.03 -49.5 0 0 389.61 296.93
  Q 389.98 297.46 391.08 297.71
  A 0.71 0.68 -16.8 0 1 391.41 297.88
  L 395.80 301.64
  A 1.55 0.64 32.4 0 1 395.93 301.78
  Q 400.01 307.13 404.19 314.08
  Q 411.54 326.31 413.70 342.77
  Q 413.97 344.86 413.38 345.55
  Q 412.77 344.92 411.05 344.49
  Q 409.22 344.04 408.61 343.67
  Q 407.58 343.05 405.42 341.88
  A 18.32 16.74 48.1 0 0 403.10 340.82
  Q 399.08 339.34 398.17 338.57
  Q 393.24 334.37 390.36 332.15
  C 383.82 327.09 379.49 321.24 376.78 313.65
  Q 375.87 311.11 374.29 308.69
  A 1.17 1.16 60.2 0 1 374.74 307.02
  Q 383.94 302.33 390.31 293.21
  Z"
/>
<path fill="#3d4b4c" d="
  M 351.98 367.11
  Q 355.16 354.98 355.32 340.50
  L 366.91 352.00
  A 2.50 2.18 -3.9 0 0 367.41 352.38
  Q 373.50 355.83 379.77 357.50
  Q 380.71 357.76 386.65 357.89
  A 2.41 2.37 -25.8 0 1 388.00 358.35
  Q 388.47 358.71 389.26 358.60
  A 0.35 0.34 16.8 0 1 389.57 359.17
  Q 383.82 365.76 379.47 367.99
  Q 365.92 374.93 351.98 367.11
  Z"
/>
<path fill="#d2ceb3" d="
  M 232.78 615.26
  L 203.17 609.20
  Q 219.83 587.23 223.93 560.72
  Q 224.91 554.37 223.44 539.47
  Q 235.13 558.61 235.54 581.50
  Q 235.86 599.24 232.78 615.26
  Z"
/>
</svg>
